<svg xmlns="http://www.w3.org/2000/svg" viewBox="0 0 64 64" role="img" aria-label="Reptilita favicon">
  <defs>
    <linearGradient id="f" x1="10" y1="6" x2="54" y2="58" gradientUnits="userSpaceOnUse">
      <stop offset="0" stop-color="#2a9d8f"/>
      <stop offset="1" stop-color="#1f6f64"/>
    </linearGradient>
  </defs>
  <path
    fill="url(#f)"
    d="M44.5 22.2c-2.1-6.2-8-10.2-14.8-9.1-6.6 1.1-11.5 6.8-11.8 13.6-.1 2.7.6 5.3 1.9 7.5-2 1.2-3.9 2.4-5.1 3.6-1.2 1.2-1.9 2.8-1.8 4.4.1 3.1 2.8 5.6 6.1 5.6 2.9 0 5.5-1.7 7.2-3.4 1.1-1.1 2.1-2.3 3.1-3.7.9 1.8 2.4 3.5 4.7 4.6 6.4 3 13.9-1.6 14.4-8.8.2-3.1-1-6-3.6-8.2 1.3-1.8 2-3.8 1.5-6.2z"/>
</svg>

