<svg xmlns="http://www.w3.org/2000/svg" width="512" height="512" viewBox="0 0 512 512" fill="none">
  <!-- Background circle -->
  <circle cx="256" cy="256" r="256" fill="#2a9d8f"/>
  
  <!-- Stylized reptile/snake head silhouette -->
  <path d="M128 256c0-70.7 57.3-128 128-128 42.7 0 80.5 20.8 104 52.8l40-26.7c-33.3-46.1-87.5-76.8-144-76.8-100.3 0-181.3 81.1-181.3 181.3S155.7 440 256 440c56.5 0 108-30.7 144-76.8l-40-26.7c-23.5 32-61.3 52.8-104 52.8-70.7 0-128-57.3-128-128z" fill="#fff" fill-opacity="0.9"/>
  
  <!-- Eye -->
  <circle cx="293" cy="213" r="26.7" fill="#fff"/>
  <circle cx="298" cy="208" r="13.3" fill="#1a5f58"/>
  
  <!-- Tongue -->
  <path d="M347 256h53.3l21.3-16M400 256l21.3 16" stroke="#e63946" stroke-width="10.7" stroke-linecap="round"/>
  
  <!-- Scale pattern suggestion -->
  <circle cx="213" cy="187" r="10.7" fill="#fff" fill-opacity="0.3"/>
  <circle cx="187" cy="227" r="10.7" fill="#fff" fill-opacity="0.3"/>
  <circle cx="200" cy="267" r="10.7" fill="#fff" fill-opacity="0.3"/>
  <circle cx="227" cy="299" r="10.7" fill="#fff" fill-opacity="0.3"/>
  <circle cx="180" cy="280" r="8" fill="#fff" fill-opacity="0.2"/>
  <circle cx="220" cy="240" r="8" fill="#fff" fill-opacity="0.2"/>
</svg>
